<?xml version="1.0" standalone="no"?>
<!DOCTYPE svg PUBLIC "-//W3C//DTD SVG 20010904//EN"
 "http://www.w3.org/TR/2001/REC-SVG-20010904/DTD/svg10.dtd">
<svg version="1.0" xmlns="http://www.w3.org/2000/svg"
 width="2352.000000pt" height="657.000000pt" viewBox="0 0 2352.000000 657.000000"
 preserveAspectRatio="xMidYMid meet">
<metadata>
Created by potrace 1.16, written by Peter Selinger 2001-2019
</metadata>
<g transform="translate(0.000000,657.000000) scale(0.100000,-0.100000)"
fill="#000000" stroke="none">
<path d="M2947 5018 l-397 -193 -270 -334 -269 -334 -22 -96 c-12 -53 -56
-248 -99 -434 l-77 -339 92 -416 c50 -229 97 -426 103 -437 6 -11 134 -173
284 -360 l273 -340 383 -181 383 -181 437 -7 437 -7 404 194 404 195 271 335
271 335 99 435 99 435 -93 423 -92 422 -277 347 -276 346 -390 192 -390 192
-445 0 -445 0 -398 -192z m759 -218 c-218 -181 -397 -330 -399 -330 -3 0 78
650 82 658 0 1 161 2 357 2 l356 0 -396 -330z m-440 -27 c-22 -181 -40 -329
-41 -331 -2 -1 -130 77 -285 175 l-282 177 33 16 c19 8 162 77 319 152 157 76
287 138 290 138 3 0 -12 -147 -34 -327z m1045 -63 c64 -215 115 -390 115 -390
-1 0 -230 18 -511 40 -280 22 -523 40 -539 40 -24 0 38 55 390 349 231 193
421 350 424 350 3 1 57 -175 121 -389z m302 225 l306 -148 -206 -213 c-113
-118 -209 -214 -212 -214 -5 0 -182 577 -219 714 -7 25 -33 36 331 -139z
m-1736 -370 c149 -93 270 -171 269 -173 -6 -5 -980 -202 -989 -199 -12 4 425
548 438 545 6 -2 133 -79 282 -173z m2548 -383 c-2 -2 -196 25 -433 60 l-430
62 210 218 210 218 223 -278 c122 -152 221 -278 220 -280z m-1579 108 c285
-22 518 -41 520 -43 1 -1 -170 -126 -379 -279 l-381 -276 -143 315 c-79 173
-143 317 -143 319 0 5 -58 9 526 -36z m-694 3 c-10 -16 -131 -192 -267 -393
-136 -201 -253 -371 -260 -378 -9 -11 -59 43 -255 276 -134 159 -243 293 -242
298 1 5 234 57 519 115 285 59 519 108 521 108 2 1 -5 -11 -16 -26z m242 -322
c76 -166 135 -306 132 -309 -7 -6 -809 -163 -813 -158 -2 2 117 179 264 394
147 216 270 388 274 384 4 -4 68 -144 143 -311z m1636 188 c228 -33 416 -62
417 -63 2 -1 -110 -157 -248 -345 -139 -188 -253 -340 -254 -339 -5 6 -395
811 -395 815 0 2 15 1 33 -2 17 -3 219 -33 447 -66z m-778 -627 l-158 -624
-223 352 c-122 194 -220 357 -219 362 6 17 753 555 755 544 2 -6 -68 -292
-155 -634z m437 229 c105 -216 191 -399 191 -407 0 -10 -699 -458 -706 -451
-2 2 297 1193 310 1235 4 13 9 22 11 20 1 -2 88 -180 194 -397z m-2384 -7
c129 -154 235 -281 235 -284 0 -6 -631 -133 -634 -128 -2 2 25 125 59 273 35
149 70 305 80 348 9 43 19 76 22 74 2 -3 109 -130 238 -283z m3280 -72 c43
-188 75 -345 73 -348 -8 -7 -598 26 -621 34 -15 6 21 60 224 335 132 181 242
327 244 325 1 -2 37 -157 80 -346z m-2097 -120 c-6 -15 -623 -851 -628 -851
-6 -1 -195 698 -189 702 7 5 772 155 797 156 13 0 22 -3 20 -7z m332 -366
c121 -192 218 -351 216 -353 -6 -6 -1088 -174 -1097 -170 -4 1 140 201 320
444 179 243 329 439 334 434 4 -4 106 -164 227 -355z m-1283 187 c-115 -205
-471 -813 -476 -813 -7 0 -164 680 -158 686 3 3 591 127 630 133 5 0 6 -2 4
-6z m163 -391 c51 -188 91 -344 89 -346 -8 -7 -651 -137 -656 -132 -3 2 102
190 233 415 130 226 238 410 240 409 1 -2 44 -157 94 -346z m2625 283 c154 -9
294 -18 311 -21 l31 -4 -79 -343 c-43 -188 -80 -346 -81 -350 -2 -7 -445 657
-481 721 -9 15 -35 15 299 -3z m-120 -414 c145 -219 242 -377 236 -380 -6 -4
-219 -37 -473 -75 -255 -37 -471 -70 -482 -73 -14 -4 4 37 72 168 49 96 156
304 237 462 81 159 151 285 155 280 5 -4 119 -176 255 -382z m-463 172 c-52
-104 -150 -295 -218 -427 l-122 -238 -25 43 c-52 90 -209 374 -210 381 -2 7
649 425 664 427 4 1 -36 -83 -89 -186z m-537 -473 c65 -116 116 -213 114 -215
-6 -5 -1239 259 -1239 265 0 4 940 154 996 159 7 1 65 -94 129 -209z m-1425
-5 c0 -4 -47 -158 -105 -343 -58 -185 -107 -341 -108 -345 -2 -8 -68 73 -339
413 l-115 146 311 66 c305 65 356 74 356 63z m825 -140 c330 -69 608 -129 619
-133 12 -5 -101 -45 -359 -125 l-377 -118 -176 170 c-247 236 -351 344 -327
338 11 -3 290 -62 620 -132z m-217 -395 c2 -6 -740 -189 -746 -184 -4 2 206
682 215 697 4 7 522 -494 531 -513z m2010 338 c-19 -24 -119 -150 -223 -281
-104 -130 -192 -236 -197 -235 -15 6 -479 411 -474 415 3 3 848 134 920 142 4
1 -7 -18 -26 -41z m-1123 -489 c-42 -195 -79 -362 -83 -373 -7 -15 -53 18
-313 225 -168 134 -306 249 -307 254 -1 9 768 256 776 249 2 -1 -31 -161 -73
-355z m398 130 c128 -111 233 -205 235 -208 3 -8 -629 -313 -635 -307 -7 7
151 716 159 716 5 0 113 -91 241 -201z m-1258 -96 c-3 -21 -25 -129 -48 -239
l-42 -202 -314 151 c-172 83 -307 153 -300 156 24 8 683 169 697 170 10 1 12
-8 7 -36z m453 -273 l231 -185 -346 -3 c-190 -1 -348 -1 -350 1 -3 4 82 435
93 465 4 15 18 5 372 -278z"/>
<path d="M7025 4799 c-122 -20 -263 -94 -336 -177 -84 -94 -127 -233 -114
-362 15 -139 65 -239 152 -303 110 -80 180 -101 416 -127 196 -22 246 -37 289
-89 31 -37 43 -84 35 -148 -12 -113 -121 -171 -304 -161 -72 4 -93 10 -161 44
-87 44 -134 100 -146 174 l-7 43 -91 -7 c-50 -3 -117 -6 -150 -6 -57 0 -58 -1
-58 -27 0 -52 28 -161 55 -215 58 -119 158 -202 308 -256 333 -121 711 -16
832 231 95 195 51 472 -94 586 -96 76 -184 103 -427 130 -184 20 -238 37 -286
86 -38 37 -53 98 -39 147 16 54 54 93 119 125 51 25 67 28 162 28 89 0 111 -3
146 -22 53 -28 100 -82 115 -132 l12 -40 146 6 c80 3 148 8 150 10 11 9 -22
153 -46 203 -59 122 -206 225 -366 255 -84 16 -230 18 -312 4z"/>
<path d="M12585 4796 c-184 -37 -302 -119 -378 -264 -70 -132 -97 -287 -97
-545 0 -523 122 -756 438 -834 94 -23 341 -23 436 0 220 55 348 190 406 427
41 170 48 507 14 713 -43 265 -179 428 -412 492 -80 23 -316 29 -407 11z m340
-313 c125 -66 165 -192 165 -514 0 -329 -40 -443 -179 -512 -38 -18 -63 -22
-146 -22 -92 0 -104 2 -155 30 -126 69 -169 196 -170 500 0 251 32 398 104
470 61 61 108 75 236 72 84 -2 113 -7 145 -24z"/>
<path d="M19232 4108 l3 -703 24 -58 c41 -103 93 -147 216 -183 51 -14 118
-18 443 -21 l382 -5 0 116 0 115 -332 3 -333 3 -45 25 c-29 17 -53 40 -69 69
-23 41 -25 57 -29 223 l-5 178 276 0 275 0 6 88 c4 48 9 99 11 115 l5 27 -285
0 -285 0 0 240 0 240 405 0 405 0 0 115 0 115 -535 0 -536 0 3 -702z"/>
<path d="M21155 4800 c-192 -31 -346 -133 -418 -280 -31 -63 -32 -68 -32 -200
0 -124 2 -139 26 -190 35 -74 72 -116 143 -162 85 -55 167 -77 365 -99 193
-21 228 -29 286 -62 61 -35 96 -92 102 -169 3 -39 1 -80 -7 -103 -18 -53 -71
-109 -133 -136 -46 -21 -67 -24 -182 -24 -126 0 -132 1 -198 32 -38 18 -86 46
-107 63 -39 31 -90 118 -90 153 0 18 -5 19 -52 13 -29 -3 -81 -6 -115 -6 l-63
0 0 -38 c0 -88 65 -217 146 -292 52 -48 180 -112 274 -137 90 -24 310 -24 400
0 294 79 435 297 375 581 -37 175 -139 275 -326 320 -35 9 -141 25 -235 35
-187 21 -244 38 -303 94 -43 41 -61 84 -61 147 0 95 67 178 176 220 79 31 224
34 303 6 66 -23 142 -94 161 -149 l12 -38 116 7 c65 4 118 7 119 8 1 0 -3 24
-8 51 -30 162 -165 292 -354 340 -75 19 -241 27 -320 15z"/>
<path d="M8162 4113 c3 -640 4 -691 21 -737 41 -107 102 -165 217 -202 48 -16
104 -18 453 -22 l397 -3 0 145 0 145 -327 3 c-294 3 -332 5 -365 21 -58 29
-68 62 -68 226 l0 141 254 0 253 0 7 88 c4 48 9 115 13 150 l6 62 -267 0 -266
0 0 185 0 185 380 0 380 0 0 150 0 150 -545 0 -546 0 3 -687z"/>
<path d="M9640 3975 l0 -825 165 0 165 0 2 516 3 517 299 -469 c164 -258 313
-484 330 -503 45 -49 119 -81 188 -81 50 0 62 4 93 31 75 66 70 6 73 867 l3
772 -166 0 -165 0 -2 -530 -3 -530 -331 528 -330 527 -162 3 -162 2 0 -825z"/>
<path d="M11390 3975 l0 -825 165 0 165 0 0 825 0 825 -165 0 -165 0 0 -825z"/>
<path d="M14078 4789 c-127 -18 -211 -81 -246 -184 -15 -45 -17 -122 -20 -752
l-3 -703 166 0 165 0 0 300 0 300 113 0 112 0 157 -298 156 -297 192 -3 c164
-2 192 0 187 12 -3 8 -84 156 -180 329 l-173 314 53 28 c69 36 154 128 192
208 54 112 63 268 24 400 -52 177 -201 309 -389 342 -87 16 -410 18 -506 4z
m457 -308 c118 -53 165 -200 104 -322 -24 -48 -90 -105 -136 -118 -21 -6 -111
-11 -200 -11 l-163 0 1 178 c0 201 8 235 58 269 31 21 45 23 165 23 105 0 139
-4 171 -19z"/>
<path d="M15400 3970 l0 -830 135 0 135 0 0 830 0 830 -135 0 -135 0 0 -830z"/>
<path d="M16751 4787 c-60 -31 -74 -64 -351 -855 -148 -426 -270 -778 -270
-783 0 -6 55 -8 136 -7 l137 3 46 147 46 148 317 0 318 0 47 -150 48 -150 139
0 c127 0 138 1 133 18 -28 100 -552 1573 -566 1592 -25 35 -58 50 -111 50 -25
0 -56 -6 -69 -13z m198 -718 c67 -224 121 -409 121 -413 0 -3 -115 -6 -256 -6
-239 0 -255 1 -250 18 117 378 249 799 253 805 3 5 6 7 8 5 2 -2 57 -186 124
-409z"/>
<path d="M17792 4128 l3 -673 24 -69 c32 -97 108 -174 201 -204 108 -35 182
-42 483 -42 l287 0 0 114 0 115 -297 3 c-297 3 -298 3 -342 28 -25 14 -54 41
-65 60 -21 34 -21 50 -24 688 l-3 652 -135 0 -135 0 3 -672z"/>
<path d="M14992 2469 c-56 -28 -92 -88 -92 -153 0 -51 22 -100 69 -155 l29
-35 -47 -37 c-26 -21 -61 -57 -77 -80 -26 -38 -29 -51 -29 -119 0 -67 4 -82
27 -118 43 -64 105 -95 203 -100 107 -6 152 9 251 83 10 7 25 -2 57 -33 41
-40 46 -42 102 -42 l60 0 -77 78 c-60 60 -75 80 -68 92 15 22 48 138 55 193
l6 47 -39 0 -39 0 -7 -55 c-3 -30 -14 -73 -23 -96 l-16 -41 -64 64 c-36 35
-82 84 -104 109 l-39 46 60 46 c70 55 100 107 100 174 0 58 -24 98 -77 130
-52 31 -159 32 -221 2z m196 -84 c43 -50 23 -106 -62 -172 -56 -43 -64 -41
-113 31 -41 60 -42 96 -5 137 48 54 134 56 180 4z m85 -577 c-9 -10 -38 -29
-66 -43 -150 -74 -323 30 -278 168 7 19 36 58 67 87 l55 52 118 -124 c109
-113 118 -124 104 -140z"/>
<path d="M8258 2316 c-82 -89 -86 -106 -23 -106 l45 0 0 -212 c0 -245 9 -281
73 -311 45 -22 144 -22 197 -1 37 15 40 19 40 56 0 34 -3 39 -17 33 -74 -32
-105 -38 -144 -26 -64 19 -69 39 -69 266 l0 195 110 0 110 0 0 35 0 35 -110 0
-110 0 0 55 c0 75 -18 72 -102 -19z"/>
<path d="M6718 2275 c-20 -7 -48 -21 -62 -30 -26 -17 -26 -17 -26 9 0 23 -4
26 -35 26 l-35 0 0 -390 0 -390 40 0 40 0 0 88 0 87 122 0 c118 0 125 1 177
30 104 57 151 148 151 290 0 113 -25 180 -87 235 -25 22 -62 44 -82 50 -50 14
-159 11 -203 -5z m197 -85 c79 -49 114 -171 81 -283 -32 -110 -104 -162 -226
-161 -41 0 -87 5 -102 12 l-28 12 0 193 0 193 41 23 c22 13 53 27 67 32 43 13
129 3 167 -21z"/>
<path d="M7535 2277 c-22 -8 -59 -26 -83 -42 -40 -26 -42 -30 -42 -77 l0 -50
33 28 c87 74 219 97 288 51 45 -30 69 -80 69 -144 l0 -51 -37 10 c-21 6 -74 8
-119 6 -185 -10 -284 -120 -226 -252 27 -60 78 -86 172 -85 75 0 125 15 175
53 l35 27 0 -35 c0 -35 1 -36 41 -36 l40 0 -3 233 -3 234 -30 48 c-42 67 -88
89 -190 92 -45 2 -97 -3 -120 -10z m255 -342 c5 -3 10 -30 10 -60 0 -52 -1
-55 -42 -83 -61 -41 -101 -54 -158 -54 -113 0 -157 90 -79 163 17 15 49 33 72
38 43 10 178 8 197 -4z"/>
<path d="M9079 2265 c-25 -13 -51 -31 -58 -39 -21 -25 -31 -19 -31 19 0 34 -1
35 -40 35 l-40 0 0 -300 0 -300 40 0 40 0 0 225 0 225 41 29 c22 17 56 35 75
41 36 12 115 10 147 -4 15 -7 17 -2 17 37 0 38 -3 46 -22 51 -50 13 -123 5
-169 -19z"/>
<path d="M10217 2275 c-21 -8 -51 -23 -66 -35 -38 -26 -41 -26 -41 10 0 28 -2
30 -40 30 l-40 0 0 -300 0 -300 45 0 45 0 0 235 0 236 63 29 c106 51 200 38
243 -34 17 -27 19 -57 22 -248 l4 -218 40 0 39 0 -3 235 -3 234 35 19 c117 65
226 58 272 -17 22 -34 23 -48 26 -253 l3 -218 40 0 40 0 -3 238 c-3 266 -8
288 -76 340 -29 22 -48 27 -106 30 -88 5 -140 -8 -205 -52 l-50 -34 -16 24
c-27 41 -86 64 -162 63 -37 0 -85 -7 -106 -14z"/>
<path d="M11442 2259 c-70 -35 -105 -71 -140 -147 -22 -48 -24 -64 -20 -145 6
-138 51 -212 160 -266 53 -27 72 -31 143 -31 71 0 90 4 143 31 65 32 99 66
135 133 19 35 22 57 22 146 0 89 -3 111 -22 146 -36 67 -70 101 -135 133 -53
27 -72 31 -143 31 -71 0 -90 -4 -143 -31z m202 -53 c140 -42 206 -195 142
-333 -102 -219 -426 -137 -426 107 0 106 64 195 162 225 56 18 66 18 122 1z"/>
<path d="M12888 2276 c-20 -7 -53 -23 -73 -35 -20 -11 -38 -21 -41 -21 -2 0
-4 14 -4 30 0 28 -2 30 -40 30 l-40 0 0 -300 0 -300 45 0 45 0 0 235 0 235 53
26 c37 19 72 28 122 32 61 3 74 1 105 -20 60 -41 65 -59 68 -295 l3 -213 40 0
39 0 0 213 c0 159 -4 226 -15 263 -16 54 -62 106 -108 123 -39 15 -154 13
-199 -3z"/>
<path d="M13704 2271 c-58 -26 -110 -84 -135 -150 -17 -47 -20 -72 -17 -156 6
-145 43 -211 148 -266 40 -21 58 -24 160 -24 88 0 126 4 163 18 45 18 47 20
47 59 0 34 -3 39 -17 33 -104 -43 -236 -50 -308 -15 -49 24 -86 66 -104 119
-21 64 -32 61 214 61 l225 0 0 63 c0 123 -50 220 -134 258 -56 26 -186 26
-242 0z m183 -62 c60 -23 112 -100 113 -166 l0 -33 -185 0 c-206 0 -198 -3
-174 71 36 106 149 165 246 128z"/>
<path d="M16335 2272 c-22 -11 -51 -32 -65 -46 -22 -24 -25 -37 -25 -101 0
-67 2 -76 28 -103 34 -35 71 -52 191 -88 140 -41 181 -100 117 -165 -30 -30
-52 -34 -136 -29 -46 2 -149 35 -179 56 -31 22 -36 18 -36 -30 0 -42 1 -44 48
-64 191 -81 385 -40 407 86 19 114 -25 165 -192 219 -132 42 -173 70 -173 115
0 86 91 120 221 82 30 -9 69 -24 87 -35 l32 -18 0 45 c0 44 -1 46 -47 67 -69
30 -222 35 -278 9z"/>
<path d="M17129 2262 c-60 -31 -111 -96 -130 -165 -17 -64 -14 -186 6 -247 25
-76 94 -143 170 -166 74 -21 230 -16 293 10 39 17 42 21 42 58 0 34 -3 39 -17
33 -104 -43 -236 -50 -308 -15 -49 24 -86 66 -104 119 -21 64 -32 61 214 61
l225 0 0 64 c0 121 -49 214 -133 255 -33 16 -63 21 -124 21 -69 0 -89 -4 -134
-28z m204 -56 c59 -24 107 -102 107 -173 l0 -23 -185 0 c-206 0 -196 -4 -175
72 29 104 154 166 253 124z"/>
<path d="M18040 2265 c-25 -14 -55 -32 -67 -41 -23 -16 -23 -16 -23 20 0 35
-1 36 -40 36 l-40 0 0 -300 0 -300 40 0 40 0 0 225 0 225 41 29 c22 17 56 35
76 42 35 11 112 8 146 -6 26 -11 25 70 -2 85 -36 19 -122 11 -171 -15z"/>
<path d="M19960 2271 c-63 -26 -126 -84 -157 -144 -23 -45 -27 -64 -28 -142 0
-79 3 -97 28 -147 30 -61 74 -105 140 -140 36 -20 57 -23 152 -23 141 0 175
15 175 76 0 35 -2 40 -17 34 -106 -45 -192 -50 -265 -15 -181 85 -177 347 7
426 57 25 158 23 219 -5 27 -11 50 -21 53 -21 2 0 3 19 1 42 -4 59 -33 72
-163 75 -79 2 -109 -1 -145 -16z"/>
<path d="M20725 2266 c-57 -26 -98 -70 -129 -136 -31 -68 -30 -225 3 -297 30
-68 93 -125 161 -148 65 -22 233 -17 293 8 34 15 37 19 37 55 l0 39 -56 -19
c-112 -38 -251 -22 -312 35 -31 29 -62 90 -62 122 l0 25 225 0 225 0 0 53 c0
123 -49 220 -133 262 -70 35 -179 35 -252 1z m223 -75 c38 -27 67 -79 77 -138
l7 -43 -190 0 -189 0 8 47 c12 62 51 117 102 143 55 28 139 24 185 -9z"/>
<path d="M21510 2268 c-60 -31 -90 -77 -90 -140 0 -99 37 -134 196 -184 155
-48 196 -86 168 -159 -25 -63 -191 -63 -316 1 l-48 24 0 -45 c0 -45 1 -46 44
-65 145 -62 322 -47 379 32 27 36 33 114 14 160 -21 49 -70 79 -196 120 -120
38 -161 68 -161 117 0 39 38 78 86 87 54 10 139 -5 199 -35 l55 -28 0 42 c0
24 -6 47 -12 52 -59 46 -244 58 -318 21z"/>
<path d="M9580 1980 l0 -300 40 0 40 0 0 300 0 300 -40 0 -40 0 0 -300z"/>
<path d="M12240 1980 l0 -300 40 0 40 0 0 300 0 300 -40 0 -40 0 0 -300z"/>
<path d="M18462 2267 c2 -8 57 -143 123 -300 l120 -287 49 2 49 3 119 280 c65
154 121 288 124 298 5 14 -1 17 -39 17 l-45 0 -102 -255 c-56 -140 -103 -255
-104 -255 -2 0 -49 115 -106 255 l-104 255 -44 0 c-31 0 -43 -4 -40 -13z"/>
<path d="M19350 1980 l0 -300 40 0 40 0 0 300 0 300 -40 0 -40 0 0 -300z"/>
</g>
</svg>
